%YAML 1.1
%TAG !u! tag:unity3d.com,2011:
--- !u!43 &4300000
Mesh:
  m_ObjectHideFlags: 0
  m_CorrespondingSourceObject: {fileID: 0}
  m_PrefabInstance: {fileID: 0}
  m_PrefabAsset: {fileID: 0}
  m_Name: Fort_Connector_D__1__Sandstom_1_0_dec_0.80
  serializedVersion: 12
  m_SubMeshes:
  - serializedVersion: 2
    firstByte: 0
    indexCount: 18
    topology: 0
    baseVertex: 0
    firstVertex: 0
    vertexCount: 14
    localAABB:
      m_Center: {x: 0.00000071525574, y: 4.2585793, z: 0}
      m_Extent: {x: 2.714028, y: 0.26979566, z: 2.7140276}
  m_Shapes:
    vertices: []
    shapes: []
    channels: []
    fullWeights: []
  m_BindPose: []
  m_BoneNameHashes: 
  m_RootBoneNameHash: 0
  m_BonesAABB: []
  m_VariableBoneCountWeights:
    m_Data: 
  m_MeshCompression: 0
  m_IsReadable: 1
  m_KeepVertices: 1
  m_KeepIndices: 1
  m_IndexFormat: 0
  m_IndexBuffer: 0000010002000300050004000600080007000600070009000a000c000b000a000b000d00
  m_VertexData:
    serializedVersion: 3
    m_VertexCount: 14
    m_Channels:
    - stream: 0
      offset: 0
      format: 0
      dimension: 3
    - stream: 0
      offset: 12
      format: 0
      dimension: 3
    - stream: 0
      offset: 0
      format: 0
      dimension: 0
    - stream: 0
      offset: 0
      format: 0
      dimension: 0
    - stream: 0
      offset: 24
      format: 0
      dimension: 2
    - stream: 0
      offset: 0
      format: 0
      dimension: 0
    - stream: 0
      offset: 0
      format: 0
      dimension: 0
    - stream: 0
      offset: 0
      format: 0
      dimension: 0
    - stream: 0
      offset: 0
      format: 0
      dimension: 0
    - stream: 0
      offset: 0
      format: 0
      dimension: 0
    - stream: 0
      offset: 0
      format: 0
      dimension: 0
    - stream: 0
      offset: 0
      format: 0
      dimension: 0
    - stream: 0
      offset: 0
      format: 0
      dimension: 0
    - stream: 0
      offset: 0
      format: 0
      dimension: 0
    m_DataSize: 448
    _typelessdata: 9eda2c40484688409bda2cc0b0957f3fe536693d00000000788db23c8ec3103f97022c4073e8904095022c40cf6f7f3f50c8873d00000000d0868f3e3e730d3fa5b22d403c487f40a1b22d40d0b57f3fedd7423d00000000a42c903ede13143f9fb22dc03c487f40a1b22dc00000000058d8423dd0b57fbf2878163fa60f763f9eda2c40484688409bda2cc0000000003bc7873dd16f7fbf6d3fa83e44b07c3f95022cc073e8904095022cc00000000042c7873dd16f7fbf3f25163f44b07c3f9fb22dc03c487f40a1b22d40d0b57fbf48d8423d00000000e221223fde13143f95022cc073e8904095022cc0d16f7fbf25c7873d00000000507a643f3e730d3f95022cc073e8904095022c40d16f7fbf25c7873d00000000cb74223f3e730d3f9fb22dc03c487f40a1b22dc0d0b57fbf48d8423d0000000039cd643fde13143fa5b22d403c487f40a1b22d400000000056d8423dd0b57f3faee9373fd820f13d95022cc073e8904095022c400000000047c7873dd16f7f3f20427a3fd81bbc3d97022c4073e8904095022c400000000042c7873dd16f7f3f983c383fd81bbc3d9fb22dc03c487f40a1b22d400000000055d8423dd0b57f3f0a957a3fd820f13d
  m_CompressedMesh:
    m_Vertices:
      m_NumItems: 0
      m_Range: 0
      m_Start: 0
      m_Data: 
      m_BitSize: 0
    m_UV:
      m_NumItems: 0
      m_Range: 0
      m_Start: 0
      m_Data: 
      m_BitSize: 0
    m_Normals:
      m_NumItems: 0
      m_Range: 0
      m_Start: 0
      m_Data: 
      m_BitSize: 0
    m_Tangents:
      m_NumItems: 0
      m_Range: 0
      m_Start: 0
      m_Data: 
      m_BitSize: 0
    m_Weights:
      m_NumItems: 0
      m_Data: 
      m_BitSize: 0
    m_NormalSigns:
      m_NumItems: 0
      m_Data: 
      m_BitSize: 0
    m_TangentSigns:
      m_NumItems: 0
      m_Data: 
      m_BitSize: 0
    m_FloatColors:
      m_NumItems: 0
      m_Range: 0
      m_Start: 0
      m_Data: 
      m_BitSize: 0
    m_BoneIndices:
      m_NumItems: 0
      m_Data: 
      m_BitSize: 0
    m_Triangles:
      m_NumItems: 0
      m_Data: 
      m_BitSize: 0
    m_UVInfo: 0
  m_LocalAABB:
    m_Center: {x: 0.00000071525574, y: 4.2585793, z: 0}
    m_Extent: {x: 2.714028, y: 0.26979566, z: 2.7140276}
  m_MeshUsageFlags: 0
  m_CookingOptions: 30
  m_BakedConvexCollisionMesh: 
  m_BakedTriangleCollisionMesh: 
  'm_MeshMetrics[0]': 1
  'm_MeshMetrics[1]': 1
  m_MeshOptimizationFlags: 1
  m_StreamData:
    serializedVersion: 2
    offset: 0
    size: 0
    path: 
  m_MeshLodInfo:
    serializedVersion: 2
    m_LodSelectionCurve:
      serializedVersion: 1
      m_LodSlope: 0
      m_LodBias: 0
    m_NumLevels: 1
    m_SubMeshes:
    - serializedVersion: 2
      m_Levels:
      - serializedVersion: 1
        m_IndexStart: 0
        m_IndexCount: 0
