%YAML 1.1
%TAG !u! tag:unity3d.com,2011:
--- !u!43 &4300000
Mesh:
  m_ObjectHideFlags: 0
  m_CorrespondingSourceObject: {fileID: 0}
  m_PrefabInstance: {fileID: 0}
  m_PrefabAsset: {fileID: 0}
  m_Name: Fort_Wall_Long__1__Sandstom_0_dec_0.25
  serializedVersion: 12
  m_SubMeshes:
  - serializedVersion: 2
    firstByte: 0
    indexCount: 18
    topology: 0
    baseVertex: 0
    firstVertex: 0
    vertexCount: 13
    localAABB:
      m_Center: {x: 0.27378774, y: 0.016450047, z: 0}
      m_Extent: {x: 0.8282691, y: 3.4699278, z: 6.2148833}
  m_Shapes:
    vertices: []
    shapes: []
    channels: []
    fullWeights: []
  m_BindPose: []
  m_BoneNameHashes: 
  m_RootBoneNameHash: 0
  m_BonesAABB: []
  m_VariableBoneCountWeights:
    m_Data: 
  m_MeshCompression: 0
  m_IsReadable: 1
  m_KeepVertices: 1
  m_KeepIndices: 1
  m_IndexFormat: 0
  m_IndexBuffer: 0000020001000000010003000400060005000400070006000700090008000a000b000c00
  m_VertexData:
    serializedVersion: 3
    m_VertexCount: 13
    m_Channels:
    - stream: 0
      offset: 0
      format: 0
      dimension: 3
    - stream: 0
      offset: 12
      format: 0
      dimension: 3
    - stream: 0
      offset: 0
      format: 0
      dimension: 0
    - stream: 0
      offset: 0
      format: 0
      dimension: 0
    - stream: 0
      offset: 24
      format: 0
      dimension: 2
    - stream: 0
      offset: 0
      format: 0
      dimension: 0
    - stream: 0
      offset: 0
      format: 0
      dimension: 0
    - stream: 0
      offset: 0
      format: 0
      dimension: 0
    - stream: 0
      offset: 0
      format: 0
      dimension: 0
    - stream: 0
      offset: 0
      format: 0
      dimension: 0
    - stream: 0
      offset: 0
      format: 0
      dimension: 0
    - stream: 0
      offset: 0
      format: 0
      dimension: 0
    - stream: 0
      offset: 0
      format: 0
      dimension: 0
    - stream: 0
      offset: 0
      format: 0
      dimension: 0
    m_DataSize: 416
    _typelessdata: 7ef20dbfc7055dc053e0c640000080bf000000000000000070d08f3e3849d23e7323863e729d2f4053e0c6c0000080bf00000000000000004bff0f3f49877f3fdd0e273f4b713f4053e0c640000080bf00000000000000004bff0f3f3849d23e241f0a3f4e045dc053e0c6c0000080bf000000000000000070d08f3e49877f3f241f0a3f4e045dc053e0c6c006f47e3f3404b93d00000000c0bf113f3849d23e7ef20dbfc7055dc053e0c64006f47e3f3404b93d00000000c0bf113f49877f3fdd0e273f4b713f4053e0c640ff3b7f3fe0469e3d00000000d3d6593f49877f3f7323863e729d2f4053e0c6c0ff3b7f3fe0469e3d00000000d3d6593f3849d23edd0e273f4b713f4053e0c6401ec77f3f849e2a3d0000000066805f3f32817f3f33108d3fd0205f4053e0c6c00000803f0000000000000000721c663f3849d23edd0e273f4b713f4053e0c640000000000000803f000000006bad693f48877f3f33108d3fd0205f4053e0c6c0000000000000803f000000007110683f3249d23e7323863e729d2f4053e0c6c0000000000000803f000000005de76c3f3249d23e
  m_CompressedMesh:
    m_Vertices:
      m_NumItems: 0
      m_Range: 0
      m_Start: 0
      m_Data: 
      m_BitSize: 0
    m_UV:
      m_NumItems: 0
      m_Range: 0
      m_Start: 0
      m_Data: 
      m_BitSize: 0
    m_Normals:
      m_NumItems: 0
      m_Range: 0
      m_Start: 0
      m_Data: 
      m_BitSize: 0
    m_Tangents:
      m_NumItems: 0
      m_Range: 0
      m_Start: 0
      m_Data: 
      m_BitSize: 0
    m_Weights:
      m_NumItems: 0
      m_Data: 
      m_BitSize: 0
    m_NormalSigns:
      m_NumItems: 0
      m_Data: 
      m_BitSize: 0
    m_TangentSigns:
      m_NumItems: 0
      m_Data: 
      m_BitSize: 0
    m_FloatColors:
      m_NumItems: 0
      m_Range: 0
      m_Start: 0
      m_Data: 
      m_BitSize: 0
    m_BoneIndices:
      m_NumItems: 0
      m_Data: 
      m_BitSize: 0
    m_Triangles:
      m_NumItems: 0
      m_Data: 
      m_BitSize: 0
    m_UVInfo: 0
  m_LocalAABB:
    m_Center: {x: 0.27378774, y: 0.016450047, z: 0}
    m_Extent: {x: 0.8282691, y: 3.4699278, z: 6.2148833}
  m_MeshUsageFlags: 0
  m_CookingOptions: 30
  m_BakedConvexCollisionMesh: 
  m_BakedTriangleCollisionMesh: 
  'm_MeshMetrics[0]': 1
  'm_MeshMetrics[1]': 1
  m_MeshOptimizationFlags: 1
  m_StreamData:
    serializedVersion: 2
    offset: 0
    size: 0
    path: 
  m_MeshLodInfo:
    serializedVersion: 2
    m_LodSelectionCurve:
      serializedVersion: 1
      m_LodSlope: 0
      m_LodBias: 0
    m_NumLevels: 1
    m_SubMeshes:
    - serializedVersion: 2
      m_Levels:
      - serializedVersion: 1
        m_IndexStart: 0
        m_IndexCount: 0
