%YAML 1.1
%TAG !u! tag:unity3d.com,2011:
--- !u!43 &4300000
Mesh:
  m_ObjectHideFlags: 0
  m_CorrespondingSourceObject: {fileID: 0}
  m_PrefabInstance: {fileID: 0}
  m_PrefabAsset: {fileID: 0}
  m_Name: leaf_pPlane5_lambert7_0_dec_0.80
  serializedVersion: 12
  m_SubMeshes:
  - serializedVersion: 2
    firstByte: 0
    indexCount: 24
    topology: 0
    baseVertex: 0
    firstVertex: 0
    vertexCount: 9
    localAABB:
      m_Center: {x: -0.4819538, y: 0.040427756, z: -0.5}
      m_Extent: {x: 0.50000006, y: 0.11541848, z: 0.5}
  m_Shapes:
    vertices: []
    shapes: []
    channels: []
    fullWeights: []
  m_BindPose: []
  m_BoneNameHashes: 
  m_RootBoneNameHash: 0
  m_BonesAABB: []
  m_VariableBoneCountWeights:
    m_Data: 
  m_MeshCompression: 0
  m_IsReadable: 1
  m_KeepVertices: 1
  m_KeepIndices: 1
  m_IndexFormat: 0
  m_IndexBuffer: 000002000100000004000300020000000300050006000000000007000400000006000700080000000100080005000000
  m_VertexData:
    serializedVersion: 3
    m_VertexCount: 9
    m_Channels:
    - stream: 0
      offset: 0
      format: 0
      dimension: 3
    - stream: 0
      offset: 12
      format: 0
      dimension: 3
    - stream: 0
      offset: 0
      format: 0
      dimension: 0
    - stream: 0
      offset: 0
      format: 0
      dimension: 0
    - stream: 0
      offset: 24
      format: 0
      dimension: 2
    - stream: 0
      offset: 32
      format: 0
      dimension: 2
    - stream: 0
      offset: 0
      format: 0
      dimension: 0
    - stream: 0
      offset: 0
      format: 0
      dimension: 0
    - stream: 0
      offset: 0
      format: 0
      dimension: 0
    - stream: 0
      offset: 0
      format: 0
      dimension: 0
    - stream: 0
      offset: 0
      format: 0
      dimension: 0
    - stream: 0
      offset: 0
      format: 0
      dimension: 0
    - stream: 0
      offset: 0
      format: 0
      dimension: 0
    - stream: 0
      offset: 0
      format: 0
      dimension: 0
    m_DataSize: 360
    _typelessdata: a8c2f6bebdbcb63d000000bfe7868d3d22697e3f3c92b23d0000003f0000003f0000003f0000003f00000080af6792bd00000000fda2c43d4153783f769c643ebe61743dd37e7a3fbe61743dd37e7a3fa8c2f6be8cec7c3d000000007ffa543e21317a3ff8f9233d0000003f0000803f0000003f0000803f54617bbf8069173e000000bfc831053e401f7d3f230897bd6a367e3f0000003f6a367e3f0000003f54617bbf1bb3853d912979bffc70d4bd6a457e3fa7e0543d603b7c3fd01c4a3d603b7c3fd01c4a3dc0d5933c97cf8e3d000000bf3125f13c06aa793fac64603e0b188c3d0000003f0b188c3d0000003fadc2f6be28961f3e000080bf71cfacbd349f7c3fa2820d3e0000003fc0a0bc3d0000003fc0a0bc3d54617bbf8006833d000080bf47bb2ebe0a547a3fa854f83d8b087b3fc06bb93c8b087b3fc06bb93c80d5933cbd9499bd000000006dc42e3dd508763f66c48b3efc762a3dd37e7a3ffc762a3dd37e7a3f
  m_CompressedMesh:
    m_Vertices:
      m_NumItems: 0
      m_Range: 0
      m_Start: 0
      m_Data: 
      m_BitSize: 0
    m_UV:
      m_NumItems: 0
      m_Range: 0
      m_Start: 0
      m_Data: 
      m_BitSize: 0
    m_Normals:
      m_NumItems: 0
      m_Range: 0
      m_Start: 0
      m_Data: 
      m_BitSize: 0
    m_Tangents:
      m_NumItems: 0
      m_Range: 0
      m_Start: 0
      m_Data: 
      m_BitSize: 0
    m_Weights:
      m_NumItems: 0
      m_Data: 
      m_BitSize: 0
    m_NormalSigns:
      m_NumItems: 0
      m_Data: 
      m_BitSize: 0
    m_TangentSigns:
      m_NumItems: 0
      m_Data: 
      m_BitSize: 0
    m_FloatColors:
      m_NumItems: 0
      m_Range: 0
      m_Start: 0
      m_Data: 
      m_BitSize: 0
    m_BoneIndices:
      m_NumItems: 0
      m_Data: 
      m_BitSize: 0
    m_Triangles:
      m_NumItems: 0
      m_Data: 
      m_BitSize: 0
    m_UVInfo: 0
  m_LocalAABB:
    m_Center: {x: -0.4819538, y: 0.040427756, z: -0.5}
    m_Extent: {x: 0.50000006, y: 0.11541848, z: 0.5}
  m_MeshUsageFlags: 0
  m_CookingOptions: 30
  m_BakedConvexCollisionMesh: 
  m_BakedTriangleCollisionMesh: 
  'm_MeshMetrics[0]': 1
  'm_MeshMetrics[1]': 1
  m_MeshOptimizationFlags: 1
  m_StreamData:
    serializedVersion: 2
    offset: 0
    size: 0
    path: 
  m_MeshLodInfo:
    serializedVersion: 2
    m_LodSelectionCurve:
      serializedVersion: 1
      m_LodSlope: 0
      m_LodBias: 0
    m_NumLevels: 1
    m_SubMeshes:
    - serializedVersion: 2
      m_Levels:
      - serializedVersion: 1
        m_IndexStart: 0
        m_IndexCount: 0
