%YAML 1.1
%TAG !u! tag:unity3d.com,2011:
--- !u!43 &4300000
Mesh:
  m_ObjectHideFlags: 0
  m_CorrespondingSourceObject: {fileID: 0}
  m_PrefabInstance: {fileID: 0}
  m_PrefabAsset: {fileID: 0}
  m_Name: pPlane6_lambert7_0_dec_0.80
  serializedVersion: 12
  m_SubMeshes:
  - serializedVersion: 2
    firstByte: 0
    indexCount: 24
    topology: 0
    baseVertex: 0
    firstVertex: 0
    vertexCount: 9
    localAABB:
      m_Center: {x: -0.52259916, y: -0.23129672, z: -0.5657514}
      m_Extent: {x: 0.5047403, y: 0.15583849, z: 0.52830344}
  m_Shapes:
    vertices: []
    shapes: []
    channels: []
    fullWeights: []
  m_BindPose: []
  m_BoneNameHashes: 
  m_RootBoneNameHash: 0
  m_BonesAABB: []
  m_VariableBoneCountWeights:
    m_Data: 
  m_MeshCompression: 0
  m_IsReadable: 1
  m_KeepVertices: 1
  m_KeepIndices: 1
  m_IndexFormat: 0
  m_IndexBuffer: 000002000100000004000300020000000300050006000000000007000400000006000700080000000100080005000000
  m_VertexData:
    serializedVersion: 3
    m_VertexCount: 9
    m_Channels:
    - stream: 0
      offset: 0
      format: 0
      dimension: 3
    - stream: 0
      offset: 12
      format: 0
      dimension: 3
    - stream: 0
      offset: 0
      format: 0
      dimension: 0
    - stream: 0
      offset: 0
      format: 0
      dimension: 0
    - stream: 0
      offset: 24
      format: 0
      dimension: 2
    - stream: 0
      offset: 32
      format: 0
      dimension: 2
    - stream: 0
      offset: 0
      format: 0
      dimension: 0
    - stream: 0
      offset: 0
      format: 0
      dimension: 0
    - stream: 0
      offset: 0
      format: 0
      dimension: 0
    - stream: 0
      offset: 0
      format: 0
      dimension: 0
    - stream: 0
      offset: 0
      format: 0
      dimension: 0
    - stream: 0
      offset: 0
      format: 0
      dimension: 0
    - stream: 0
      offset: 0
      format: 0
      dimension: 0
    - stream: 0
      offset: 0
      format: 0
      dimension: 0
    m_DataSize: 360
    _typelessdata: 8f1cfabedb9591beb1b422bf6682983ce0977f3f1bd9593d0000003f0000003f0000003f0000003fbd3480bd65caacbefb6219bde70c8e3d21c37d3f97d8e53dbe61743dd37e7a3fbe61743dd37e7a3f44aae0bee093bebd461683bdc2baf93e045b4c3f3aedb4be0000003f0000803f0000003f0000803f0b5a78bfd8899abd34b821bf228ece3e8d6e4e3f0b69ddbe6a367e3f0000003f6a367e3f0000003fdc7f83bfb6349fbee0d887bfeedf49beb129793f2ae7f03d603b7c3fd01c4a3d603b7c3fd01c4a3da84c92bca1c4d9bdae990bbf23ffb0beaaee533fbc2ce23e0b188c3d0000003f0b188c3d0000003fa53e19bf7c5bc2bdd31086bfdc86d8be6a04493f0894e73e0000003fc0a0bc3d0000003fc0a0bc3d922d82bf963aacbefd098cbffdd4d8beb89d503f9d98ca3e8b087b3fc06bb93c8b087b3fc06bb93c249031bd9636c6be08169bbda6408bbe3679623fd6e2c13efc762a3dd37e7a3ffc762a3dd37e7a3f
  m_CompressedMesh:
    m_Vertices:
      m_NumItems: 0
      m_Range: 0
      m_Start: 0
      m_Data: 
      m_BitSize: 0
    m_UV:
      m_NumItems: 0
      m_Range: 0
      m_Start: 0
      m_Data: 
      m_BitSize: 0
    m_Normals:
      m_NumItems: 0
      m_Range: 0
      m_Start: 0
      m_Data: 
      m_BitSize: 0
    m_Tangents:
      m_NumItems: 0
      m_Range: 0
      m_Start: 0
      m_Data: 
      m_BitSize: 0
    m_Weights:
      m_NumItems: 0
      m_Data: 
      m_BitSize: 0
    m_NormalSigns:
      m_NumItems: 0
      m_Data: 
      m_BitSize: 0
    m_TangentSigns:
      m_NumItems: 0
      m_Data: 
      m_BitSize: 0
    m_FloatColors:
      m_NumItems: 0
      m_Range: 0
      m_Start: 0
      m_Data: 
      m_BitSize: 0
    m_BoneIndices:
      m_NumItems: 0
      m_Data: 
      m_BitSize: 0
    m_Triangles:
      m_NumItems: 0
      m_Data: 
      m_BitSize: 0
    m_UVInfo: 0
  m_LocalAABB:
    m_Center: {x: -0.52259916, y: -0.23129672, z: -0.5657514}
    m_Extent: {x: 0.5047403, y: 0.15583849, z: 0.52830344}
  m_MeshUsageFlags: 0
  m_CookingOptions: 30
  m_BakedConvexCollisionMesh: 
  m_BakedTriangleCollisionMesh: 
  'm_MeshMetrics[0]': 1
  'm_MeshMetrics[1]': 1
  m_MeshOptimizationFlags: 1
  m_StreamData:
    serializedVersion: 2
    offset: 0
    size: 0
    path: 
  m_MeshLodInfo:
    serializedVersion: 2
    m_LodSelectionCurve:
      serializedVersion: 1
      m_LodSlope: 0
      m_LodBias: 0
    m_NumLevels: 1
    m_SubMeshes:
    - serializedVersion: 2
      m_Levels:
      - serializedVersion: 1
        m_IndexStart: 0
        m_IndexCount: 0
