%YAML 1.1
%TAG !u! tag:unity3d.com,2011:
--- !u!43 &4300000
Mesh:
  m_ObjectHideFlags: 0
  m_CorrespondingSourceObject: {fileID: 0}
  m_PrefabInstance: {fileID: 0}
  m_PrefabAsset: {fileID: 0}
  m_Name: pPlane2_lambert7_0_dec_0.80
  serializedVersion: 12
  m_SubMeshes:
  - serializedVersion: 2
    firstByte: 0
    indexCount: 24
    topology: 0
    baseVertex: 0
    firstVertex: 0
    vertexCount: 9
    localAABB:
      m_Center: {x: -0.5110209, y: -0.20430894, z: -0.56099147}
      m_Extent: {x: 0.51631856, y: 0.18282627, z: 0.53306335}
  m_Shapes:
    vertices: []
    shapes: []
    channels: []
    fullWeights: []
  m_BindPose: []
  m_BoneNameHashes: 
  m_RootBoneNameHash: 0
  m_BonesAABB: []
  m_VariableBoneCountWeights:
    m_Data: 
  m_MeshCompression: 0
  m_IsReadable: 1
  m_KeepVertices: 1
  m_KeepIndices: 1
  m_IndexFormat: 0
  m_IndexBuffer: 000002000100000004000300020000000300050006000000000007000400000006000700080000000100080005000000
  m_VertexData:
    serializedVersion: 3
    m_VertexCount: 9
    m_Channels:
    - stream: 0
      offset: 0
      format: 0
      dimension: 3
    - stream: 0
      offset: 12
      format: 0
      dimension: 3
    - stream: 0
      offset: 0
      format: 0
      dimension: 0
    - stream: 0
      offset: 0
      format: 0
      dimension: 0
    - stream: 0
      offset: 24
      format: 0
      dimension: 2
    - stream: 0
      offset: 32
      format: 0
      dimension: 2
    - stream: 0
      offset: 0
      format: 0
      dimension: 0
    - stream: 0
      offset: 0
      format: 0
      dimension: 0
    - stream: 0
      offset: 0
      format: 0
      dimension: 0
    - stream: 0
      offset: 0
      format: 0
      dimension: 0
    - stream: 0
      offset: 0
      format: 0
      dimension: 0
    - stream: 0
      offset: 0
      format: 0
      dimension: 0
    - stream: 0
      offset: 0
      format: 0
      dimension: 0
    - stream: 0
      offset: 0
      format: 0
      dimension: 0
    m_DataSize: 360
    _typelessdata: 8f1cfabedb9591beb1b422bf7ba8b73c9bcc7f3f09b1053d0000003f0000003f0000003f0000003fbd3480bd65caacbefb6219bdbfdee93d8c7a7d3f81e1a53dbe61743dd37e7a3fbe61743dd37e7a3f10e0dbbe70fcafbc69c9e4bced080d3f3b153a3fb0efd1be0000003f0000803f0000003f0000803f67a071bf18f1dfbccb631cbfe692ea3e9b4b3e3f118af9be6a367e3f0000003f6a367e3f0000003fdc7f83bfb6349fbee0d887bf62252fbe73547b3fd416aa3d603b7c3fd01c4a3d603b7c3fd01c4a3d0498ad3b42b374bdf74d08bfea21d5bea6ed453f57fbf43e0b188c3d0000003f0b188c3d0000003fa53e19bf7c5bc2bdd31086bf1f30ecbe33fc403fd98def3e0000003fc0a0bc3d0000003fc0a0bc3d922d82bf963aacbefd098cbffdd4d8beb89d503f9d98ca3e8b087b3fc06bb93c8b087b3fc06bb93c249031bd9636c6be08169bbd9900aebe72dd563f0641d93efc762a3dd37e7a3ffc762a3dd37e7a3f
  m_CompressedMesh:
    m_Vertices:
      m_NumItems: 0
      m_Range: 0
      m_Start: 0
      m_Data: 
      m_BitSize: 0
    m_UV:
      m_NumItems: 0
      m_Range: 0
      m_Start: 0
      m_Data: 
      m_BitSize: 0
    m_Normals:
      m_NumItems: 0
      m_Range: 0
      m_Start: 0
      m_Data: 
      m_BitSize: 0
    m_Tangents:
      m_NumItems: 0
      m_Range: 0
      m_Start: 0
      m_Data: 
      m_BitSize: 0
    m_Weights:
      m_NumItems: 0
      m_Data: 
      m_BitSize: 0
    m_NormalSigns:
      m_NumItems: 0
      m_Data: 
      m_BitSize: 0
    m_TangentSigns:
      m_NumItems: 0
      m_Data: 
      m_BitSize: 0
    m_FloatColors:
      m_NumItems: 0
      m_Range: 0
      m_Start: 0
      m_Data: 
      m_BitSize: 0
    m_BoneIndices:
      m_NumItems: 0
      m_Data: 
      m_BitSize: 0
    m_Triangles:
      m_NumItems: 0
      m_Data: 
      m_BitSize: 0
    m_UVInfo: 0
  m_LocalAABB:
    m_Center: {x: -0.5110209, y: -0.20430894, z: -0.56099147}
    m_Extent: {x: 0.51631856, y: 0.18282627, z: 0.53306335}
  m_MeshUsageFlags: 0
  m_CookingOptions: 30
  m_BakedConvexCollisionMesh: 
  m_BakedTriangleCollisionMesh: 
  'm_MeshMetrics[0]': 1
  'm_MeshMetrics[1]': 1
  m_MeshOptimizationFlags: 1
  m_StreamData:
    serializedVersion: 2
    offset: 0
    size: 0
    path: 
  m_MeshLodInfo:
    serializedVersion: 2
    m_LodSelectionCurve:
      serializedVersion: 1
      m_LodSlope: 0
      m_LodBias: 0
    m_NumLevels: 1
    m_SubMeshes:
    - serializedVersion: 2
      m_Levels:
      - serializedVersion: 1
        m_IndexStart: 0
        m_IndexCount: 0
